<svg width="37" height="38" viewBox="0 0 37 38" fill="none" xmlns="http://www.w3.org/2000/svg">
<path d="M35.6902 16.2891H31.384V9.98804L35.6902 7.76956V16.2891Z" fill="#FDC04E"/>
<path d="M35.6902 21.7107H31.384V28.0117L35.6902 30.2302V21.7107Z" fill="#06A73B"/>
<path d="M4.76438 5.44619L0.404011 0.0246856L35.6438 7.76969L35.6438 10.0932L35.6438 12.4167L4.76438 5.44619Z" fill="#FDC04E"/>
<path d="M4.7656 32.5536L0.405232 37.9751L35.645 30.2301L35.645 27.9066L35.645 25.5831L4.7656 32.5536Z" fill="#06A73B"/>
<path d="M5.05103 16.2891L0.404021 16.2891L0.404021 0.0245476L5.05103 3.56031L5.05103 16.2891Z" fill="#FDC04E"/>
<path d="M5.05103 21.7107L0.404021 21.7107L0.404021 37.9752L5.05103 34.4394L5.05103 21.7107Z" fill="#06A73B"/>
</svg>
