<svg width="264" height="46" viewBox="0 0 264 46" fill="none" xmlns="http://www.w3.org/2000/svg">
<path d="M37.525 45L34.197 37.064H13.717L10.325 45H0.725L19.093 0.199997H28.757L16.917 29.064H30.933L24.597 13.704L31.829 7.496L47.125 45H37.525ZM67.666 12.616C69.9273 12.616 72.0607 13.0427 74.066 13.896C76.0713 14.7493 77.8207 15.9227 79.314 17.416C80.8073 18.9093 81.9807 20.6587 82.834 22.664C83.73 24.6693 84.178 26.8027 84.178 29.064C84.178 31.3253 83.73 33.4587 82.834 35.464C81.9807 37.4693 80.8073 39.2187 79.314 40.712C77.8207 42.2053 76.0713 43.3787 74.066 44.232C72.0607 45.0853 69.9273 45.512 67.666 45.512C63.2713 45.512 59.922 43.8907 57.618 40.648V45H49.17V0.199997H57.682V29.064C57.682 30.3013 57.9167 31.4533 58.386 32.52C58.8553 33.5867 59.474 34.5253 60.242 35.336C61.0527 36.104 61.9913 36.7227 63.058 37.192C64.1673 37.6613 65.3407 37.896 66.578 37.896C67.7727 37.896 68.9033 37.6613 69.97 37.192C71.0793 36.7227 72.018 36.104 72.786 35.336C73.5967 34.5253 74.2367 33.5867 74.706 32.52C75.1753 31.4533 75.41 30.3013 75.41 29.064C75.41 27.8267 75.1753 26.6747 74.706 25.608C74.2367 24.5413 73.5967 23.6027 72.786 22.792C72.018 21.9813 71.0793 21.3627 69.97 20.936C68.9033 20.4667 67.7727 20.232 66.578 20.232C65.426 20.232 64.274 20.4667 63.122 20.936L63.058 21L62.994 20.872L59.858 15.112L59.922 15.048C62.0127 13.4267 64.594 12.616 67.666 12.616ZM103.294 12.488C105.598 12.488 107.752 12.936 109.758 13.832C111.763 14.6853 113.512 15.8587 115.006 17.352C116.499 18.8453 117.672 20.5947 118.526 22.6C119.422 24.6053 119.87 26.7387 119.87 29C119.87 31.2613 119.422 33.3947 118.526 35.4C117.672 37.4053 116.499 39.1547 115.006 40.648C113.512 42.1413 111.763 43.336 109.758 44.232C107.752 45.0853 105.598 45.512 103.294 45.512C100.99 45.512 98.8348 45.0853 96.8295 44.232C94.8242 43.336 93.0748 42.1413 91.5815 40.648C90.0882 39.1547 88.8935 37.4053 87.9975 35.4C87.1442 33.3947 86.7175 31.2613 86.7175 29C86.7175 26.7387 87.1442 24.6053 87.9975 22.6C88.8935 20.5947 90.0882 18.8453 91.5815 17.352C93.0748 15.8587 94.8242 14.6853 96.8295 13.832C98.8348 12.936 100.99 12.488 103.294 12.488ZM103.294 37.896C104.36 37.896 105.342 37.6613 106.238 37.192C107.176 36.7227 107.987 36.0827 108.67 35.272C109.395 34.4187 109.95 33.4587 110.334 32.392C110.76 31.2827 110.974 30.088 110.974 28.808C110.974 27.6133 110.76 26.4827 110.334 25.416C109.95 24.3067 109.395 23.368 108.67 22.6C107.987 21.7893 107.176 21.1493 106.238 20.68C105.342 20.2107 104.36 19.976 103.294 19.976C102.227 19.976 101.224 20.2107 100.286 20.68C99.3468 21.1493 98.5148 21.7893 97.7895 22.6C97.1068 23.368 96.5522 24.3067 96.1255 25.416C95.7415 26.4827 95.5495 27.6133 95.5495 28.808C95.5495 30.088 95.7415 31.2827 96.1255 32.392C96.5522 33.4587 97.1068 34.4187 97.7895 35.272C98.5148 36.0827 99.3468 36.7227 100.286 37.192C101.224 37.6613 102.227 37.896 103.294 37.896ZM155.429 13V45.192H146.661V13H155.429ZM141.989 36.936L145.061 42.504V42.568C142.842 44.5307 140.09 45.512 136.805 45.512C131.6 45.512 127.909 44.104 125.733 41.288C123.728 38.7707 122.725 34.76 122.725 29.256V13H131.493V29.256C131.493 30.408 131.514 31.5173 131.557 32.584C131.642 33.6507 131.877 34.5893 132.261 35.4C132.688 36.2107 133.328 36.872 134.181 37.384C135.034 37.8533 136.25 38.088 137.829 38.088C138.554 38.088 139.258 37.9813 139.941 37.768C140.624 37.5547 141.264 37.2773 141.861 36.936H141.989ZM181.567 16.328V23.432H176.831L172.863 16.328H181.567ZM171.775 34.056C171.775 35.0373 172.116 35.8693 172.799 36.552C173.524 37.2347 174.378 37.576 175.359 37.576H181.567V45H175.359C173.695 45 172.116 44.7013 170.623 44.104C169.172 43.464 167.892 42.6107 166.783 41.544C165.716 40.4347 164.863 39.1547 164.223 37.704C163.583 36.2533 163.263 34.696 163.263 33.032V23.432H158.655V16.328H163.263V4.744H171.775V34.056Z" fill="#FDC04E"/>
<path d="M206.696 26.504C206.696 28.04 206.952 29.4907 207.464 30.856C208.018 32.1787 208.765 33.352 209.704 34.376C210.642 35.3573 211.73 36.1467 212.968 36.744C214.248 37.3413 215.592 37.64 217 37.64V45.512C214.312 45.512 211.794 45.0213 209.448 44.04C207.101 43.016 205.032 41.6293 203.24 39.88C201.49 38.1307 200.104 36.0827 199.08 33.736C198.098 31.3893 197.608 28.872 197.608 26.184V0.199997H206.696V26.184V26.312V26.504ZM236.264 0.199997V26.184C236.264 28.4453 235.88 30.6 235.112 32.648C234.386 34.6533 233.362 36.488 232.04 38.152C230.76 39.7733 229.224 41.1813 227.432 42.376C225.64 43.528 223.698 44.3813 221.608 44.936L217.64 37.576C218.962 37.4907 220.2 37.1493 221.352 36.552C222.504 35.912 223.506 35.1013 224.36 34.12C225.256 33.096 225.938 31.944 226.408 30.664C226.92 29.3413 227.176 27.9547 227.176 26.504C227.176 26.4613 227.154 26.44 227.112 26.44C227.112 26.3973 227.112 26.3547 227.112 26.312C227.112 26.184 227.112 26.1627 227.112 26.248C227.154 26.3333 227.176 26.2693 227.176 26.056C227.176 25.8 227.176 25.288 227.176 24.52C227.176 23.7093 227.176 22.3653 227.176 20.488C227.176 18.568 227.176 15.9867 227.176 12.744C227.176 9.50133 227.176 5.32 227.176 0.199997H236.264ZM253.852 25.992C255.26 26.4613 256.54 26.952 257.692 27.464C258.886 27.9333 259.91 28.5093 260.764 29.192C261.66 29.8747 262.342 30.7067 262.812 31.688C263.324 32.6267 263.58 33.7573 263.58 35.08V35.144C263.58 38.3867 262.492 40.9253 260.316 42.76C258.182 44.5947 255.174 45.512 251.292 45.512C248.86 45.512 246.47 45.1067 244.124 44.296C241.777 43.4427 239.58 42.248 237.532 40.712L237.468 40.648L237.532 40.584L241.884 33.736L241.948 33.8C243.228 35.1653 244.678 36.2107 246.3 36.936C247.921 37.6187 249.649 37.96 251.484 37.96C254.001 37.96 255.26 37.1493 255.26 35.528C255.26 34.76 254.854 34.184 254.044 33.8C253.233 33.416 252.273 33.0533 251.164 32.712C250.95 32.6267 250.737 32.584 250.524 32.584C250.353 32.5413 250.161 32.4773 249.948 32.392C248.668 32.0507 247.388 31.688 246.108 31.304C244.828 30.8773 243.676 30.3227 242.652 29.64C241.628 28.9147 240.774 28.0187 240.092 26.952C239.452 25.8427 239.132 24.4347 239.132 22.728V22.6C239.132 21.1067 239.409 19.7413 239.964 18.504C240.518 17.2667 241.308 16.2 242.332 15.304C243.356 14.408 244.593 13.7253 246.044 13.256C247.494 12.744 249.094 12.488 250.844 12.488C252.892 12.488 254.961 12.808 257.052 13.448C259.142 14.0453 261.084 14.9413 262.876 16.136V16.264L258.972 23.368L258.908 23.304C257.926 22.3227 256.71 21.5547 255.26 21C253.809 20.4027 252.273 20.104 250.652 20.104C250.353 20.104 250.012 20.1253 249.628 20.168C249.244 20.2107 248.881 20.3173 248.54 20.488C248.241 20.6587 247.985 20.8933 247.772 21.192C247.558 21.448 247.452 21.832 247.452 22.344C247.452 22.728 247.622 23.0907 247.964 23.432C248.305 23.7307 248.732 24.0293 249.244 24.328C249.798 24.584 250.396 24.84 251.036 25.096C251.718 25.352 252.38 25.5867 253.02 25.8C253.148 25.8 253.276 25.8213 253.404 25.864C253.574 25.9067 253.724 25.9493 253.852 25.992Z" fill="#06A73B"/>
</svg>
