<svg width="47" height="47" viewBox="0 0 47 47" fill="none" xmlns="http://www.w3.org/2000/svg">
<circle cx="23.7437" cy="23.2437" r="22.7492" fill="white" stroke="#E9E9E9" stroke-width="0.989094"/>
<path d="M26.7437 20.2441H30.4937M26.7437 23.2441H30.4937M26.7437 26.2441H30.4937M16.2437 30.7441H31.2437C32.4863 30.7441 33.4937 29.7368 33.4937 28.4941V17.9941C33.4937 16.7515 32.4863 15.7441 31.2437 15.7441H16.2437C15.001 15.7441 13.9937 16.7515 13.9937 17.9941V28.4941C13.9937 29.7368 15.001 30.7441 16.2437 30.7441ZM22.2437 20.6191C22.2437 21.6547 21.4042 22.4941 20.3687 22.4941C19.3331 22.4941 18.4937 21.6547 18.4937 20.6191C18.4937 19.5836 19.3331 18.7441 20.3687 18.7441C21.4042 18.7441 22.2437 19.5836 22.2437 20.6191ZM23.5375 26.9555C22.5926 27.4589 21.5139 27.7441 20.3685 27.7441C19.2231 27.7441 18.1444 27.4589 17.1995 26.9555C17.6735 25.6649 18.9135 24.7441 20.3685 24.7441C21.8235 24.7441 23.0635 25.6649 23.5375 26.9555Z" stroke="#232323" stroke-width="1.5" stroke-linecap="round" stroke-linejoin="round"/>
</svg>
