<svg width="49" height="48" viewBox="0 0 49 48" fill="none" xmlns="http://www.w3.org/2000/svg">
<rect x="0.666748" width="48" height="48" rx="12" fill="#06A73B"/>
<path fill-rule="evenodd" clip-rule="evenodd" d="M19.6667 17.5C19.3906 17.5 19.1667 17.7239 19.1667 18C19.1667 18.2761 19.3906 18.5 19.6667 18.5V29.5H19.1667C18.8906 29.5 18.6667 29.7239 18.6667 30C18.6667 30.2761 18.8906 30.5 19.1667 30.5H30.1667C30.4429 30.5 30.6667 30.2761 30.6667 30C30.6667 29.7239 30.4429 29.5 30.1667 29.5H29.6667V18.5C29.9429 18.5 30.1667 18.2761 30.1667 18C30.1667 17.7239 29.9429 17.5 29.6667 17.5H19.6667ZM22.6667 20C22.3906 20 22.1667 20.2239 22.1667 20.5C22.1667 20.7761 22.3906 21 22.6667 21H23.6667C23.9429 21 24.1667 20.7761 24.1667 20.5C24.1667 20.2239 23.9429 20 23.6667 20H22.6667ZM22.1667 22.5C22.1667 22.2239 22.3906 22 22.6667 22H23.6667C23.9429 22 24.1667 22.2239 24.1667 22.5C24.1667 22.7761 23.9429 23 23.6667 23H22.6667C22.3906 23 22.1667 22.7761 22.1667 22.5ZM22.6667 24C22.3906 24 22.1667 24.2239 22.1667 24.5C22.1667 24.7761 22.3906 25 22.6667 25H23.6667C23.9429 25 24.1667 24.7761 24.1667 24.5C24.1667 24.2239 23.9429 24 23.6667 24H22.6667ZM25.1667 20.5C25.1667 20.2239 25.3906 20 25.6667 20H26.6667C26.9429 20 27.1667 20.2239 27.1667 20.5C27.1667 20.7761 26.9429 21 26.6667 21H25.6667C25.3906 21 25.1667 20.7761 25.1667 20.5ZM25.6667 22C25.3906 22 25.1667 22.2239 25.1667 22.5C25.1667 22.7761 25.3906 23 25.6667 23H26.6667C26.9429 23 27.1667 22.7761 27.1667 22.5C27.1667 22.2239 26.9429 22 26.6667 22H25.6667ZM25.1667 24.5C25.1667 24.2239 25.3906 24 25.6667 24H26.6667C26.9429 24 27.1667 24.2239 27.1667 24.5C27.1667 24.7761 26.9429 25 26.6667 25H25.6667C25.3906 25 25.1667 24.7761 25.1667 24.5ZM22.6667 29V27.5C22.6667 27.2239 22.8906 27 23.1667 27H26.1667C26.4429 27 26.6667 27.2239 26.6667 27.5V29C26.6667 29.2761 26.4429 29.5 26.1667 29.5H23.1667C22.8906 29.5 22.6667 29.2761 22.6667 29Z" fill="white"/>
</svg>
