<svg width="84" height="85" viewBox="0 0 84 85" fill="none" xmlns="http://www.w3.org/2000/svg">
<rect x="0.5" y="1" width="83" height="83" rx="12.5" fill="#FDC04E"/>
<rect x="0.5" y="1" width="83" height="83" rx="12.5" stroke="#E9E9E9"/>
<path fill-rule="evenodd" clip-rule="evenodd" d="M26.375 22.1875C25.5121 22.1875 24.8125 22.8871 24.8125 23.75C24.8125 24.6129 25.5121 25.3125 26.375 25.3125V59.6875H24.8125C23.9496 59.6875 23.25 60.3871 23.25 61.25C23.25 62.1129 23.9496 62.8125 24.8125 62.8125H59.1875C60.0504 62.8125 60.75 62.1129 60.75 61.25C60.75 60.3871 60.0504 59.6875 59.1875 59.6875H57.625V25.3125C58.4879 25.3125 59.1875 24.6129 59.1875 23.75C59.1875 22.8871 58.4879 22.1875 57.625 22.1875H26.375ZM35.75 30C34.8871 30 34.1875 30.6996 34.1875 31.5625C34.1875 32.4254 34.8871 33.125 35.75 33.125H38.875C39.7379 33.125 40.4375 32.4254 40.4375 31.5625C40.4375 30.6996 39.7379 30 38.875 30H35.75ZM34.1875 37.8125C34.1875 36.9496 34.8871 36.25 35.75 36.25H38.875C39.7379 36.25 40.4375 36.9496 40.4375 37.8125C40.4375 38.6754 39.7379 39.375 38.875 39.375H35.75C34.8871 39.375 34.1875 38.6754 34.1875 37.8125ZM35.75 42.5C34.8871 42.5 34.1875 43.1996 34.1875 44.0625C34.1875 44.9254 34.8871 45.625 35.75 45.625H38.875C39.7379 45.625 40.4375 44.9254 40.4375 44.0625C40.4375 43.1996 39.7379 42.5 38.875 42.5H35.75ZM43.5625 31.5625C43.5625 30.6996 44.2621 30 45.125 30H48.25C49.1129 30 49.8125 30.6996 49.8125 31.5625C49.8125 32.4254 49.1129 33.125 48.25 33.125H45.125C44.2621 33.125 43.5625 32.4254 43.5625 31.5625ZM45.125 36.25C44.2621 36.25 43.5625 36.9496 43.5625 37.8125C43.5625 38.6754 44.2621 39.375 45.125 39.375H48.25C49.1129 39.375 49.8125 38.6754 49.8125 37.8125C49.8125 36.9496 49.1129 36.25 48.25 36.25H45.125ZM43.5625 44.0625C43.5625 43.1996 44.2621 42.5 45.125 42.5H48.25C49.1129 42.5 49.8125 43.1996 49.8125 44.0625C49.8125 44.9254 49.1129 45.625 48.25 45.625H45.125C44.2621 45.625 43.5625 44.9254 43.5625 44.0625ZM35.75 58.125V53.4375C35.75 52.5746 36.4496 51.875 37.3125 51.875H46.6875C47.5504 51.875 48.25 52.5746 48.25 53.4375V58.125C48.25 58.9879 47.5504 59.6875 46.6875 59.6875H37.3125C36.4496 59.6875 35.75 58.9879 35.75 58.125Z" fill="white"/>
</svg>
