<svg width="262" height="81" viewBox="0 0 262 81" fill="none" xmlns="http://www.w3.org/2000/svg">
<path d="M79.5557 19.6281C82.0638 19.6281 84.4326 20.1158 86.6621 21.0912C88.8916 22.0318 90.825 23.3381 92.4622 25.0102C94.1343 26.6475 95.4407 28.5809 96.3812 30.8103C97.3566 33.0398 97.8443 35.4086 97.8443 37.9168C97.8443 40.425 97.3566 42.7938 96.3812 45.0233C95.4407 47.2527 94.1343 49.2035 92.4622 50.8756C90.825 52.5129 88.8916 53.8192 86.6621 54.7946C84.4326 55.7352 82.0638 56.2055 79.5557 56.2055H76.525L73.0762 49.8306H79.5557C81.0536 49.8306 82.4644 49.5345 83.7882 48.9423C85.1468 48.3501 86.3138 47.5314 87.2891 46.4864C88.2994 45.4065 89.0832 44.135 89.6405 42.6719C90.2328 41.2088 90.5289 39.6237 90.5289 37.9168C90.5289 36.2447 90.2328 34.6771 89.6405 33.214C89.0832 31.7509 88.2994 30.4968 87.2891 29.4518C86.3138 28.3719 85.1468 27.5358 83.7882 26.9436C82.4644 26.3166 81.0536 26.003 79.5557 26.003H71.1951V56.2055H63.8796V19.6281H79.5557ZM100.716 56.2055V30.0788H107.666V56.2055H100.716ZM100.716 19.6281H107.666V25.7418H100.716V19.6281ZM139.141 30.0788V53.227C139.037 55.1778 138.601 56.9893 137.835 58.6614C137.068 60.3683 136.041 61.8314 134.752 63.0507C133.498 64.3047 132.017 65.2801 130.31 65.9769C128.603 66.7084 126.792 67.0742 124.876 67.0742C122.298 67.0742 119.895 66.4297 117.665 65.1408C115.47 63.8867 113.729 62.1624 112.44 59.9677L112.387 59.8632L112.44 59.811L118.188 57.3028C118.536 57.9298 118.971 58.4698 119.494 58.9226C120.051 59.4103 120.626 59.7935 121.218 60.0722C121.845 60.3857 122.472 60.6122 123.099 60.7515C123.761 60.9257 124.388 61.0128 124.981 61.0128C125.886 61.0128 126.775 60.8212 127.645 60.438C128.516 60.0548 129.283 59.4974 129.945 58.7659C130.641 58.0343 131.181 57.1635 131.564 56.1532C131.982 55.143 132.192 54.0108 132.192 52.7568V43.1944C132.192 42.1842 131.982 41.2436 131.564 40.3727C131.181 39.467 130.641 38.7006 129.945 38.0736C129.283 37.4117 128.499 36.8892 127.593 36.506C126.722 36.1228 125.782 35.9312 124.772 35.9312C123.761 35.9312 122.803 36.1228 121.898 36.506C121.027 36.8892 120.26 37.4117 119.598 38.0736C118.937 38.7006 118.414 39.467 118.031 40.3727C117.648 41.2436 117.456 42.1842 117.456 43.1944C117.456 44.2046 117.648 45.1452 118.031 46.0161C118.414 46.887 118.937 47.6533 119.598 48.3152C120.26 48.9771 121.027 49.4996 121.898 49.8828C122.803 50.266 123.761 50.4576 124.772 50.4576C125.851 50.4576 126.792 50.266 127.593 49.8828H127.645L127.698 49.9351L130.31 54.5856L130.258 54.6379C128.551 56.0313 126.444 56.728 123.935 56.728C122.054 56.728 120.278 56.3797 118.606 55.6829C116.934 54.9514 115.488 53.976 114.269 52.7568C113.049 51.5375 112.074 50.1093 111.342 48.472C110.646 46.7999 110.297 45.0407 110.297 43.1944C110.297 41.3133 110.646 39.5541 111.342 37.9168C112.074 36.2795 113.049 34.8513 114.269 33.632C115.488 32.4128 116.934 31.4548 118.606 30.7581C120.278 30.0265 122.054 29.6608 123.935 29.6608C127.489 29.6608 130.241 31.0019 132.192 33.6843V30.0788H139.141ZM142.254 56.2055V30.0788H149.203V56.2055H142.254ZM142.254 19.6281H149.203V25.7418H142.254V19.6281Z" fill="#FDC04E"/>
<path d="M170.541 32.796V38.5961H166.675L163.435 32.796H170.541ZM162.547 47.2702C162.547 48.0714 162.825 48.7507 163.383 49.308C163.975 49.8654 164.672 50.1441 165.473 50.1441H170.541V56.2055H165.473C164.114 56.2055 162.825 55.9616 161.606 55.4739C160.422 54.9514 159.377 54.2547 158.471 53.3838C157.6 52.4781 156.903 51.433 156.381 50.2486C155.858 49.0642 155.597 47.7927 155.597 46.4341V38.5961H151.835V32.796H155.597V23.3381H162.547V47.2702ZM184.913 29.6608C186.76 29.6608 188.502 30.0265 190.139 30.7581C191.776 31.4548 193.204 32.4128 194.424 33.632C195.643 34.8513 196.601 36.2795 197.298 37.9168C198.029 39.5541 198.395 41.3133 198.395 43.1944C198.395 44.2046 198.29 45.18 198.081 46.1206L198.029 46.2251H184.757L181.413 40.8952H191.341C190.853 39.4322 190.034 38.2303 188.885 37.2898C187.77 36.3492 186.446 35.8789 184.913 35.8789C183.973 35.8789 183.085 36.0705 182.249 36.4537C181.413 36.8369 180.681 37.3594 180.054 38.0213C179.462 38.6484 178.991 39.4147 178.643 40.3205C178.295 41.1913 178.121 42.1493 178.121 43.1944C178.121 43.9956 178.277 44.8317 178.591 45.7026C178.904 46.5386 179.357 47.305 179.949 48.0017C180.542 48.6984 181.256 49.2906 182.092 49.7783C182.928 50.2312 183.868 50.4576 184.913 50.4576C185.854 50.4576 186.708 50.3357 187.474 50.0918C188.275 49.8131 189.024 49.2209 189.721 48.3152L189.773 48.263L189.878 48.3152L195.939 50.9801L195.834 51.0846C194.58 52.8264 192.978 54.185 191.027 55.1604C189.111 56.1358 187.073 56.6235 184.913 56.6235C183.032 56.6235 181.256 56.2751 179.584 55.5784C177.946 54.8817 176.518 53.9237 175.299 52.7045C174.08 51.4853 173.104 50.057 172.373 48.4197C171.676 46.7825 171.328 45.0407 171.328 43.1944C171.328 41.3133 171.676 39.5541 172.373 37.9168C173.104 36.2795 174.08 34.8513 175.299 33.632C176.518 32.4128 177.946 31.4548 179.584 30.7581C181.256 30.0265 183.032 29.6608 184.913 29.6608ZM212.013 34.5726H219.694V40.3727H215.253H215.2L212.013 34.5726ZM219.694 19.6281V25.7418H213.999C213.093 25.7418 212.396 26.0901 211.908 26.7868C211.421 27.4836 211.177 28.4415 211.177 29.6608V56.2055H204.227V40.3727H200.465V34.5726H204.227V29.3473C204.227 28.0235 204.471 26.7694 204.959 25.585C205.481 24.4006 206.178 23.373 207.049 22.5021C207.955 21.5963 209 20.8996 210.184 20.4119C211.369 19.8894 212.64 19.6281 213.999 19.6281H219.694ZM250.378 30.0788V56.2055H243.532V43.1421C243.532 42.1319 243.341 41.1913 242.958 40.3205C242.574 39.4496 242.034 38.6832 241.338 38.0213C240.676 37.3594 239.892 36.8543 238.986 36.506C238.115 36.1228 237.192 35.9312 236.217 35.9312C235.207 35.9312 234.266 36.1228 233.395 36.506C232.524 36.8892 231.741 37.4117 231.044 38.0736C230.382 38.7006 229.859 39.467 229.476 40.3727C229.093 41.2436 228.901 42.1842 228.901 43.1944C228.901 44.1698 229.093 45.0929 229.476 45.9638C229.859 46.8347 230.382 47.6011 231.044 48.263C231.741 48.9248 232.524 49.4474 233.395 49.8306C234.266 50.2138 235.207 50.4054 236.217 50.4054C237.297 50.4054 238.22 50.2138 238.986 49.8306H239.039V49.9351L241.651 54.5856L241.599 54.6379C239.892 55.9616 237.784 56.6235 235.276 56.6235C233.43 56.6235 231.688 56.2751 230.051 55.5784C228.414 54.8817 226.985 53.9237 225.766 52.7045C224.547 51.4853 223.572 50.057 222.84 48.4197C222.143 46.7825 221.795 45.0407 221.795 43.1944C221.795 41.3133 222.143 39.5541 222.84 37.9168C223.572 36.2795 224.547 34.8513 225.766 33.632C226.985 32.4128 228.414 31.4548 230.051 30.7581C231.688 30.0265 233.43 29.6608 235.276 29.6608C237.088 29.6608 238.673 30.0091 240.031 30.7058C241.39 31.3677 242.557 32.3431 243.532 33.632V30.0788H250.378Z" fill="#06A73B"/>
<path d="M46.0816 37H40.5216V28.8644L46.0816 26V37Z" fill="#FDC04E"/>
<path d="M46.0816 44H40.5216V52.1356L46.0816 55V44Z" fill="#06A73B"/>
<path d="M6.15154 23L0.52164 16L46.0216 26L46.0216 29L46.0216 32L6.15154 23Z" fill="#FDC04E"/>
<path d="M6.15319 58L0.523288 65L46.0233 55L46.0233 52L46.0233 49L6.15319 58Z" fill="#06A73B"/>
<path d="M6.52164 37L0.521637 37L0.521637 16L6.52164 20.5652L6.52164 37Z" fill="#FDC04E"/>
<path d="M6.52164 44L0.521637 44L0.521637 65L6.52164 60.4348L6.52164 44Z" fill="#06A73B"/>
</svg>
