<svg width="188" height="49" viewBox="0 0 188 49" fill="none" xmlns="http://www.w3.org/2000/svg">
<path d="M16.5557 0.628133C19.0638 0.628133 21.4326 1.11583 23.6621 2.09123C25.8916 3.03179 27.825 4.33812 29.4622 6.01023C31.1343 7.6475 32.4407 9.58087 33.3812 11.8103C34.3566 14.0398 34.8443 16.4086 34.8443 18.9168C34.8443 21.425 34.3566 23.7938 33.3812 26.0233C32.4407 28.2527 31.1343 30.2035 29.4622 31.8756C27.825 33.5129 25.8916 34.8192 23.6621 35.7946C21.4326 36.7352 19.0638 37.2055 16.5557 37.2055H13.525L10.0762 30.8306H16.5557C18.0536 30.8306 19.4644 30.5345 20.7882 29.9423C22.1468 29.3501 23.3138 28.5314 24.2891 27.4864C25.2994 26.4065 26.0832 25.135 26.6405 23.6719C27.2328 22.2088 27.5289 20.6237 27.5289 18.9168C27.5289 17.2447 27.2328 15.6771 26.6405 14.214C26.0832 12.7509 25.2994 11.4968 24.2891 10.4518C23.3138 9.37186 22.1468 8.53581 20.7882 7.9436C19.4644 7.31656 18.0536 7.00304 16.5557 7.00304H8.19512V37.2055H0.879648V0.628133H16.5557ZM37.7162 37.2055V11.0788H44.6659V37.2055H37.7162ZM37.7162 0.628133H44.6659V6.74178H37.7162V0.628133ZM76.1412 11.0788V34.227C76.0367 36.1778 75.6013 37.9893 74.8349 39.6614C74.0685 41.3683 73.0408 42.8314 71.7519 44.0507C70.4978 45.3047 69.0173 46.2801 67.3104 46.9769C65.6034 47.7084 63.792 48.0742 61.876 48.0742C59.2982 48.0742 56.8946 47.4297 54.6651 46.1408C52.4704 44.8867 50.7287 43.1624 49.4397 40.9677L49.3875 40.8632L49.4397 40.811L55.1876 38.3028C55.536 38.9298 55.9714 39.4698 56.4939 39.9226C57.0513 40.4103 57.6261 40.7935 58.2183 41.0722C58.8453 41.3857 59.4724 41.6122 60.0994 41.7515C60.7613 41.9257 61.3883 42.0128 61.9805 42.0128C62.8863 42.0128 63.7746 41.8212 64.6455 41.438C65.5164 41.0548 66.2827 40.4974 66.9446 39.7659C67.6413 39.0343 68.1813 38.1635 68.5645 37.1532C68.9825 36.143 69.1915 35.0108 69.1915 33.7568V24.1944C69.1915 23.1842 68.9825 22.2436 68.5645 21.3727C68.1813 20.467 67.6413 19.7006 66.9446 19.0736C66.2827 18.4117 65.4989 17.8892 64.5932 17.506C63.7223 17.1228 62.7818 16.9312 61.7715 16.9312C60.7613 16.9312 59.8033 17.1228 58.8976 17.506C58.0267 17.8892 57.2603 18.4117 56.5985 19.0736C55.9366 19.7006 55.414 20.467 55.0309 21.3727C54.6477 22.2436 54.4561 23.1842 54.4561 24.1944C54.4561 25.2046 54.6477 26.1452 55.0309 27.0161C55.414 27.887 55.9366 28.6533 56.5985 29.3152C57.2603 29.9771 58.0267 30.4996 58.8976 30.8828C59.8033 31.266 60.7613 31.4576 61.7715 31.4576C62.8514 31.4576 63.792 31.266 64.5932 30.8828H64.6455L64.6977 30.9351L67.3104 35.5856L67.2581 35.6379C65.5512 37.0313 63.4436 37.728 60.9355 37.728C59.0544 37.728 57.2777 37.3797 55.6056 36.6829C53.9335 35.9514 52.4879 34.976 51.2686 33.7568C50.0494 32.5375 49.074 31.1093 48.3424 29.472C47.6457 27.7999 47.2974 26.0407 47.2974 24.1944C47.2974 22.3133 47.6457 20.5541 48.3424 18.9168C49.074 17.2795 50.0494 15.8513 51.2686 14.632C52.4879 13.4128 53.9335 12.4548 55.6056 11.7581C57.2777 11.0265 59.0544 10.6608 60.9355 10.6608C64.4887 10.6608 67.2407 12.0019 69.1915 14.6843V11.0788H76.1412ZM79.2535 37.2055V11.0788H86.2032V37.2055H79.2535ZM79.2535 0.628133H86.2032V6.74178H79.2535V0.628133Z" fill="#FDC04E"/>
<path d="M107.541 13.796V19.5961H103.675L100.435 13.796H107.541ZM99.5466 28.2702C99.5466 29.0714 99.8253 29.7507 100.383 30.308C100.975 30.8654 101.672 31.1441 102.473 31.1441H107.541V37.2055H102.473C101.114 37.2055 99.8253 36.9616 98.6061 36.4739C97.4216 35.9514 96.3766 35.2547 95.4709 34.3838C94.6 33.4781 93.9033 32.433 93.3807 31.2486C92.8582 30.0642 92.5969 28.7927 92.5969 27.4341V19.5961H88.8347V13.796H92.5969V4.33812H99.5466V28.2702ZM121.913 10.6608C123.76 10.6608 125.502 11.0265 127.139 11.7581C128.776 12.4548 130.204 13.4128 131.424 14.632C132.643 15.8513 133.601 17.2795 134.298 18.9168C135.029 20.5541 135.395 22.3133 135.395 24.1944C135.395 25.2046 135.29 26.18 135.081 27.1206L135.029 27.2251H121.757L118.413 21.8952H128.341C127.853 20.4322 127.034 19.2303 125.885 18.2898C124.77 17.3492 123.446 16.8789 121.913 16.8789C120.973 16.8789 120.085 17.0705 119.249 17.4537C118.413 17.8369 117.681 18.3594 117.054 19.0213C116.462 19.6484 115.991 20.4147 115.643 21.3205C115.295 22.1913 115.121 23.1493 115.121 24.1944C115.121 24.9956 115.277 25.8317 115.591 26.7026C115.904 27.5386 116.357 28.305 116.949 29.0017C117.542 29.6984 118.256 30.2906 119.092 30.7783C119.928 31.2312 120.868 31.4576 121.913 31.4576C122.854 31.4576 123.708 31.3357 124.474 31.0918C125.275 30.8131 126.024 30.2209 126.721 29.3152L126.773 29.263L126.878 29.3152L132.939 31.9801L132.834 32.0846C131.58 33.8264 129.978 35.185 128.027 36.1604C126.111 37.1358 124.073 37.6235 121.913 37.6235C120.032 37.6235 118.256 37.2751 116.584 36.5784C114.946 35.8817 113.518 34.9237 112.299 33.7045C111.08 32.4853 110.104 31.057 109.373 29.4197C108.676 27.7825 108.328 26.0407 108.328 24.1944C108.328 22.3133 108.676 20.5541 109.373 18.9168C110.104 17.2795 111.08 15.8513 112.299 14.632C113.518 13.4128 114.946 12.4548 116.584 11.7581C118.256 11.0265 120.032 10.6608 121.913 10.6608ZM149.013 15.5726H156.694V21.3727H152.253H152.2L149.013 15.5726ZM156.694 0.628133V6.74178H150.999C150.093 6.74178 149.396 7.09013 148.908 7.78684C148.421 8.48355 148.177 9.44153 148.177 10.6608V37.2055H141.227V21.3727H137.465V15.5726H141.227V10.3473C141.227 9.0235 141.471 7.76942 141.959 6.58502C142.481 5.40061 143.178 4.37296 144.049 3.50207C144.955 2.59634 146 1.89963 147.184 1.41193C148.369 0.8894 149.64 0.628133 150.999 0.628133H156.694ZM187.378 11.0788V37.2055H180.532V24.1421C180.532 23.1319 180.341 22.1913 179.958 21.3205C179.574 20.4496 179.034 19.6832 178.338 19.0213C177.676 18.3594 176.892 17.8543 175.986 17.506C175.115 17.1228 174.192 16.9312 173.217 16.9312C172.207 16.9312 171.266 17.1228 170.395 17.506C169.524 17.8892 168.741 18.4117 168.044 19.0736C167.382 19.7006 166.859 20.467 166.476 21.3727C166.093 22.2436 165.901 23.1842 165.901 24.1944C165.901 25.1698 166.093 26.0929 166.476 26.9638C166.859 27.8347 167.382 28.6011 168.044 29.263C168.741 29.9248 169.524 30.4474 170.395 30.8306C171.266 31.2138 172.207 31.4054 173.217 31.4054C174.297 31.4054 175.22 31.2138 175.986 30.8306H176.039V30.9351L178.651 35.5856L178.599 35.6379C176.892 36.9616 174.784 37.6235 172.276 37.6235C170.43 37.6235 168.688 37.2751 167.051 36.5784C165.414 35.8817 163.985 34.9237 162.766 33.7045C161.547 32.4853 160.572 31.057 159.84 29.4197C159.143 27.7825 158.795 26.0407 158.795 24.1944C158.795 22.3133 159.143 20.5541 159.84 18.9168C160.572 17.2795 161.547 15.8513 162.766 14.632C163.985 13.4128 165.414 12.4548 167.051 11.7581C168.688 11.0265 170.43 10.6608 172.276 10.6608C174.088 10.6608 175.673 11.0091 177.031 11.7058C178.39 12.3677 179.557 13.3431 180.532 14.632V11.0788H187.378Z" fill="#06A73B"/>
</svg>
