<svg width="47" height="47" viewBox="0 0 47 47" fill="none" xmlns="http://www.w3.org/2000/svg">
<circle cx="23.7437" cy="23.2437" r="22.7492" fill="white" stroke="#E9E9E9" stroke-width="0.989094"/>
<path d="M16.003 21.3904C15.7305 23.4745 15.565 25.5921 15.5122 27.7377C18.4082 28.9468 21.1626 30.4273 23.7437 32.1473C26.3247 30.4273 29.0791 28.9468 31.9751 27.7377C31.9223 25.5921 31.7568 23.4745 31.4843 21.3905M16.003 21.3904C15.1273 21.0961 14.2409 20.8248 13.3447 20.5775C16.5901 18.3026 20.0711 16.341 23.7437 14.7363C27.4163 16.341 30.8973 18.3027 34.1427 20.5775C33.2464 20.8249 32.3601 21.0961 31.4843 21.3905M16.003 21.3904C18.6902 22.2937 21.2774 23.4147 23.7437 24.7324C26.2099 23.4147 28.7971 22.2937 31.4843 21.3905M18.4937 26.2438C18.9079 26.2438 19.2437 25.908 19.2437 25.4938C19.2437 25.0796 18.9079 24.7438 18.4937 24.7438C18.0794 24.7438 17.7437 25.0796 17.7437 25.4938C17.7437 25.908 18.0794 26.2438 18.4937 26.2438ZM18.4937 26.2438V22.5682C20.1851 21.5173 21.9373 20.5547 23.7437 19.6871M16.7363 31.2364C17.9079 30.0648 18.4937 28.5293 18.4937 26.9938V25.4938" stroke="#232323" stroke-width="1.5" stroke-linecap="round" stroke-linejoin="round"/>
</svg>
