<svg width="371" height="47" viewBox="0 0 371 47" fill="none" xmlns="http://www.w3.org/2000/svg">
<path d="M25.5378 28.144H15.5538L11.3938 19.76H25.5378V28.144ZM30.8498 1.2L30.9137 8.688H9.85775L9.79375 38.576H30.8498V46H0.83375V1.2H30.8498ZM36.5108 14.064L44.7668 37.232L39.1348 43.056L27.3588 14H36.5108V14.064ZM54.0468 14H63.1348L50.0148 46H42.5908L45.2148 38.64L54.0468 14ZM77.5138 13.488C79.7751 13.488 81.9084 13.936 83.9138 14.832C85.9191 15.6853 87.6684 16.8587 89.1618 18.352C90.6551 19.8453 91.8284 21.5947 92.6818 23.6C93.5778 25.6053 94.0258 27.76 94.0258 30.064C94.0258 31.3013 93.8978 32.496 93.6418 33.648L93.5778 33.776H77.3218L73.2258 27.248H85.3858C84.7884 25.456 83.7858 23.984 82.3778 22.832C81.0124 21.68 79.3911 21.104 77.5138 21.104C76.3618 21.104 75.2738 21.3387 74.2498 21.808C73.2258 22.2773 72.3298 22.9173 71.5618 23.728C70.8364 24.496 70.2604 25.4347 69.8338 26.544C69.4071 27.6107 69.1938 28.784 69.1938 30.064C69.1938 31.0453 69.3858 32.0693 69.7698 33.136C70.1538 34.16 70.7084 35.0987 71.4338 35.952C72.1591 36.8053 73.0338 37.5307 74.0578 38.128C75.0818 38.6827 76.2338 38.96 77.5138 38.96C78.6658 38.96 79.7111 38.8107 80.6498 38.512C81.6311 38.1707 82.5484 37.4453 83.4018 36.336L83.4658 36.272L83.5938 36.336L91.0178 39.6L90.8898 39.728C89.3538 41.8613 87.3911 43.5253 85.0018 44.72C82.6551 45.9147 80.1591 46.512 77.5138 46.512C75.2098 46.512 73.0338 46.0853 70.9858 45.232C68.9804 44.3787 67.2311 43.2053 65.7378 41.712C64.2444 40.2187 63.0498 38.4693 62.1538 36.464C61.3004 34.4587 60.8738 32.3253 60.8738 30.064C60.8738 27.76 61.3004 25.6053 62.1538 23.6C63.0498 21.5947 64.2444 19.8453 65.7378 18.352C67.2311 16.8587 68.9804 15.6853 70.9858 14.832C73.0338 13.936 75.2098 13.488 77.5138 13.488ZM97.2013 14H105.905V46H97.2013V14ZM126.769 17.712C127.836 19.0347 128.604 20.6987 129.073 22.704C129.543 24.7093 129.777 27.184 129.777 30.128V46H121.073V30.128C121.073 28.9333 121.031 27.8027 120.945 26.736C120.903 25.6267 120.689 24.6667 120.305 23.856C119.921 23.0027 119.303 22.3413 118.449 21.872C117.596 21.4027 116.38 21.168 114.801 21.168C113.308 21.168 111.921 21.488 110.641 22.128V22.192L110.577 22.128L107.441 16.56L107.505 16.496C109.724 14.4907 112.497 13.488 115.825 13.488C120.945 13.488 124.593 14.896 126.769 17.712ZM155.598 17.328V24.432H150.862L146.894 17.328H155.598ZM145.806 35.056C145.806 36.0373 146.148 36.8693 146.83 37.552C147.556 38.2347 148.409 38.576 149.39 38.576H155.598V46H149.39C147.726 46 146.148 45.7013 144.654 45.104C143.204 44.464 141.924 43.6107 140.814 42.544C139.748 41.4347 138.894 40.1547 138.254 38.704C137.614 37.2533 137.294 35.696 137.294 34.032V24.432H132.686V17.328H137.294V5.744H145.806V35.056Z" fill="#FDC04E"/>
<path d="M207.863 40.176L201.463 46.576L197.943 42.992L191.415 36.528L182.839 27.888L182.327 28.336C181.175 29.36 180.599 30.5973 180.599 32.048C180.599 32.8587 180.791 33.6267 181.175 34.352C181.559 35.0773 182.049 35.7173 182.647 36.272C183.287 36.8267 184.012 37.2747 184.823 37.616C185.676 37.9147 186.551 38.064 187.447 38.064C187.959 38.064 188.513 38.0427 189.111 38C189.708 37.9573 190.284 37.8507 190.839 37.68L193.207 45.424C192.268 45.7227 191.308 45.9573 190.327 46.128C189.388 46.2987 188.428 46.384 187.447 46.384C185.313 46.384 183.287 46 181.367 45.232C179.447 44.464 177.761 43.44 176.311 42.16C174.903 40.8373 173.772 39.3013 172.919 37.552C172.065 35.8027 171.639 33.968 171.639 32.048C171.639 30.0853 172.023 28.2293 172.791 26.48C173.601 24.688 174.753 23.1093 176.247 21.744L176.567 21.488C175.671 20.336 174.967 19.0987 174.455 17.776C173.943 16.4533 173.687 15.0667 173.687 13.616C173.687 11.824 174.049 10.1387 174.775 8.56C175.5 6.98133 176.524 5.57333 177.847 4.336C179.169 3.09867 180.641 2.18133 182.263 1.584C183.927 0.943998 185.655 0.623997 187.447 0.623997C189.025 0.623997 190.455 0.83733 191.735 1.264C193.015 1.648 194.167 2.16 195.191 2.8C196.257 3.44 197.196 4.16533 198.007 4.976C198.86 5.78666 199.628 6.59733 200.311 7.408L193.079 12.912C192.353 11.888 191.543 10.9493 190.647 10.096C189.751 9.24266 188.684 8.816 187.447 8.816C186.081 8.816 184.951 9.30666 184.055 10.288C183.159 11.2267 182.711 12.336 182.711 13.616C182.711 14.7253 183.137 15.6427 183.991 16.368L184.055 16.496L195.639 28.016V21.552C196.108 21.424 196.705 21.2747 197.431 21.104C198.156 20.8907 198.924 20.6773 199.735 20.464C200.545 20.208 201.377 19.9733 202.231 19.76C203.084 19.504 203.873 19.2693 204.599 19.056V32.048C204.599 32.7733 204.513 33.4773 204.343 34.16C204.215 34.8 204.023 35.4827 203.767 36.208L207.863 40.176Z" fill="url(#paint0_linear_2505_13997)"/>
<path d="M234.178 1.2L263.042 42.8V46H253.698L234.178 17.84V46H224.834V1.2H234.178ZM253.698 1.2H263.042V34.736L253.698 28.016V1.2ZM283.201 13.488C285.463 13.488 287.596 13.936 289.601 14.832C291.607 15.6853 293.356 16.8587 294.849 18.352C296.343 19.8453 297.516 21.5947 298.369 23.6C299.265 25.6053 299.713 27.76 299.713 30.064C299.713 31.3013 299.585 32.496 299.329 33.648L299.265 33.776H283.009L278.913 27.248H291.073C290.476 25.456 289.473 23.984 288.065 22.832C286.7 21.68 285.079 21.104 283.201 21.104C282.049 21.104 280.961 21.3387 279.937 21.808C278.913 22.2773 278.017 22.9173 277.249 23.728C276.524 24.496 275.948 25.4347 275.521 26.544C275.095 27.6107 274.881 28.784 274.881 30.064C274.881 31.0453 275.073 32.0693 275.457 33.136C275.841 34.16 276.396 35.0987 277.121 35.952C277.847 36.8053 278.721 37.5307 279.745 38.128C280.769 38.6827 281.921 38.96 283.201 38.96C284.353 38.96 285.399 38.8107 286.337 38.512C287.319 38.1707 288.236 37.4453 289.089 36.336L289.153 36.272L289.281 36.336L296.705 39.6L296.577 39.728C295.041 41.8613 293.079 43.5253 290.689 44.72C288.343 45.9147 285.847 46.512 283.201 46.512C280.897 46.512 278.721 46.0853 276.673 45.232C274.668 44.3787 272.919 43.2053 271.425 41.712C269.932 40.2187 268.737 38.4693 267.841 36.464C266.988 34.4587 266.561 32.3253 266.561 30.064C266.561 27.76 266.988 25.6053 267.841 23.6C268.737 21.5947 269.932 19.8453 271.425 18.352C272.919 16.8587 274.668 15.6853 276.673 14.832C278.721 13.936 280.897 13.488 283.201 13.488ZM336.229 14H345.061L344.997 14.064L336.421 46H326.245L322.085 27.056L317.797 46H311.205V45.872L317.605 14H317.669H326.437L331.301 38.256L336.229 14ZM308.005 14.064L312.421 36.592L306.789 42.416L306.725 42.288L299.109 14H308.005V14.064ZM360.383 26.992C361.791 27.4613 363.071 27.952 364.223 28.464C365.417 28.9333 366.441 29.5093 367.295 30.192C368.191 30.8747 368.873 31.7067 369.343 32.688C369.855 33.6267 370.111 34.7573 370.111 36.08V36.144C370.111 39.3867 369.023 41.9253 366.847 43.76C364.713 45.5947 361.705 46.512 357.823 46.512C355.391 46.512 353.001 46.1067 350.655 45.296C348.308 44.4427 346.111 43.248 344.063 41.712L343.999 41.648L344.063 41.584L348.415 34.736L348.479 34.8C349.759 36.1653 351.209 37.2107 352.831 37.936C354.452 38.6187 356.18 38.96 358.015 38.96C360.532 38.96 361.791 38.1493 361.791 36.528C361.791 35.76 361.385 35.184 360.575 34.8C359.764 34.416 358.804 34.0533 357.695 33.712C357.481 33.6267 357.268 33.584 357.055 33.584C356.884 33.5413 356.692 33.4773 356.479 33.392C355.199 33.0507 353.919 32.688 352.639 32.304C351.359 31.8773 350.207 31.3227 349.183 30.64C348.159 29.9147 347.305 29.0187 346.623 27.952C345.983 26.8427 345.663 25.4347 345.663 23.728V23.6C345.663 22.1067 345.94 20.7413 346.495 19.504C347.049 18.2667 347.839 17.2 348.863 16.304C349.887 15.408 351.124 14.7253 352.575 14.256C354.025 13.744 355.625 13.488 357.375 13.488C359.423 13.488 361.492 13.808 363.583 14.448C365.673 15.0453 367.615 15.9413 369.407 17.136V17.264L365.503 24.368L365.439 24.304C364.457 23.3227 363.241 22.5547 361.791 22C360.34 21.4027 358.804 21.104 357.183 21.104C356.884 21.104 356.543 21.1253 356.159 21.168C355.775 21.2107 355.412 21.3173 355.071 21.488C354.772 21.6587 354.516 21.8933 354.303 22.192C354.089 22.448 353.983 22.832 353.983 23.344C353.983 23.728 354.153 24.0907 354.495 24.432C354.836 24.7307 355.263 25.0293 355.775 25.328C356.329 25.584 356.927 25.84 357.567 26.096C358.249 26.352 358.911 26.5867 359.551 26.8C359.679 26.8 359.807 26.8213 359.935 26.864C360.105 26.9067 360.255 26.9493 360.383 26.992Z" fill="#06A73B"/>
<defs>
<linearGradient id="paint0_linear_2505_13997" x1="171" y1="24" x2="208" y2="24" gradientUnits="userSpaceOnUse">
<stop stop-color="#06A73B"/>
<stop offset="1" stop-color="#FDC04E"/>
</linearGradient>
</defs>
</svg>
