<svg width="84" height="85" viewBox="0 0 84 85" fill="none" xmlns="http://www.w3.org/2000/svg">
<rect x="0.5" y="1" width="83" height="83" rx="12.5" fill="#FDC04E"/>
<rect x="0.5" y="1" width="83" height="83" rx="12.5" stroke="white"/>
<path d="M56.0625 44.0625L59.1875 44.0625C60.0505 44.0625 60.75 43.3629 60.75 42.5C60.75 41.637 60.0504 40.9375 59.1875 40.9375L56.0625 40.9375C55.1995 40.9375 54.5 41.6371 54.5 42.5C54.5 43.363 55.1996 44.0625 56.0625 44.0625Z" fill="white"/>
<path d="M42 30C42 29.1371 42.6996 28.4375 43.5625 28.4375L59.1875 28.4375C60.0504 28.4375 60.75 29.1371 60.75 30C60.75 30.863 60.0504 31.5625 59.1875 31.5625L43.5625 31.5625C42.6996 31.5625 42 30.8629 42 30Z" fill="white"/>
<path d="M42 55C42 54.1371 42.6996 53.4375 43.5625 53.4375L59.1875 53.4375C60.0504 53.4375 60.75 54.1371 60.75 55C60.75 55.863 60.0504 56.5625 59.1875 56.5625L43.5625 56.5625C42.6996 56.5625 42 55.8629 42 55Z" fill="white"/>
<path d="M24.8125 31.5625L27.9375 31.5625C28.8005 31.5625 29.5 30.8629 29.5 30C29.5 29.137 28.8004 28.4375 27.9375 28.4375L24.8125 28.4375C23.9495 28.4375 23.25 29.1371 23.25 30C23.25 30.863 23.9496 31.5625 24.8125 31.5625Z" fill="white"/>
<path d="M27.9375 56.5625L24.8125 56.5625C23.9496 56.5625 23.25 55.863 23.25 55C23.25 54.1371 23.9495 53.4375 24.8125 53.4375L27.9375 53.4375C28.8004 53.4375 29.5 54.137 29.5 55C29.5 55.8629 28.8005 56.5625 27.9375 56.5625Z" fill="white"/>
<path d="M23.25 42.5C23.25 41.6371 23.9496 40.9375 24.8125 40.9375H40.4375C41.3004 40.9375 42 41.6371 42 42.5C42 43.3629 41.3004 44.0625 40.4375 44.0625H24.8125C23.9496 44.0625 23.25 43.3629 23.25 42.5Z" fill="white"/>
<path d="M35.75 25.3125C33.1612 25.3125 31.0625 27.4112 31.0625 30C31.0625 32.5888 33.1612 34.6875 35.75 34.6875C38.3388 34.6875 40.4375 32.5888 40.4375 30C40.4375 27.4112 38.3388 25.3125 35.75 25.3125Z" fill="white"/>
<path d="M43.5625 42.5C43.5625 39.9112 45.6612 37.8125 48.25 37.8125C50.8388 37.8125 52.9375 39.9112 52.9375 42.5C52.9375 45.0888 50.8388 47.1875 48.25 47.1875C45.6612 47.1875 43.5625 45.0888 43.5625 42.5Z" fill="white"/>
<path d="M35.75 50.3125C33.1612 50.3125 31.0625 52.4112 31.0625 55C31.0625 57.5888 33.1612 59.6875 35.75 59.6875C38.3388 59.6875 40.4375 57.5888 40.4375 55C40.4375 52.4112 38.3388 50.3125 35.75 50.3125Z" fill="white"/>
</svg>
