<svg width="47" height="47" viewBox="0 0 47 47" fill="none" xmlns="http://www.w3.org/2000/svg">
<circle cx="23.7437" cy="23.2437" r="22.7492" fill="white" stroke="#E9E9E9" stroke-width="0.989094"/>
<path d="M15.4937 14.2441V25.4941C15.4937 26.7368 16.501 27.7441 17.7437 27.7441H19.9937M15.4937 14.2441H13.9937M15.4937 14.2441H31.9937M31.9937 14.2441H33.4937M31.9937 14.2441V25.4941C31.9937 26.7368 30.9863 27.7441 29.7437 27.7441H27.4937M19.9937 27.7441H27.4937M19.9937 27.7441L18.9937 30.7441M27.4937 27.7441L28.4937 30.7441M28.4937 30.7441L28.9937 32.2441M28.4937 30.7441H18.9937M18.9937 30.7441L18.4937 32.2441M19.2437 23.2441L22.2437 20.2441L24.3912 22.3917C25.3978 20.9471 26.714 19.7344 28.2437 18.8495" stroke="#232323" stroke-width="1.5" stroke-linecap="round" stroke-linejoin="round"/>
</svg>
