<svg width="84" height="84" viewBox="0 0 84 84" fill="none" xmlns="http://www.w3.org/2000/svg">
<rect x="0.5" y="0.5" width="83" height="83" rx="12.5" fill="#FDC04E"/>
<rect x="0.5" y="0.5" width="83" height="83" rx="12.5" stroke="#E9E9E9"/>
<path fill-rule="evenodd" clip-rule="evenodd" d="M32.625 27.9375C32.625 24.4857 35.4232 21.6875 38.875 21.6875H45.125C48.5768 21.6875 51.375 24.4857 51.375 27.9375V28.3645C53.3176 28.5424 55.2446 28.7749 57.1543 29.0607C60.1835 29.5139 62.3125 32.1492 62.3125 35.1369V41.456C62.3125 43.9792 60.7841 46.3568 58.2786 47.1898C53.1596 48.8917 47.6858 49.8125 42.0001 49.8125C36.3143 49.8125 30.8405 48.8916 25.7214 47.1897C23.2159 46.3567 21.6875 43.9792 21.6875 41.456V35.1369C21.6875 32.1492 23.8165 29.5139 26.8457 29.0607C28.7554 28.7749 30.6824 28.5424 32.625 28.3645V27.9375ZM48.25 27.9375V28.1267C46.1826 28.0012 44.0987 27.9375 42 27.9375C39.9014 27.9375 37.8174 28.0012 35.75 28.1267V27.9375C35.75 26.2116 37.1491 24.8125 38.875 24.8125H45.125C46.8509 24.8125 48.25 26.2116 48.25 27.9375ZM42 45.125C42.8629 45.125 43.5625 44.4255 43.5625 43.5625C43.5625 42.6996 42.8629 42 42 42C41.1371 42 40.4375 42.6996 40.4375 43.5625C40.4375 44.4255 41.1371 45.125 42 45.125Z" fill="white"/>
<path d="M23.25 55.3332V49.5082C23.7147 49.763 24.2104 49.9805 24.7355 50.1551C30.1685 51.9614 35.975 52.9375 42.0001 52.9375C48.0251 52.9375 53.8315 51.9614 59.2645 50.1552C59.7896 49.9806 60.2853 49.7631 60.75 49.5082V55.3333C60.75 58.3581 58.5682 61.0156 55.4935 61.4238C51.0782 62.01 46.574 62.3125 42 62.3125C37.426 62.3125 32.9218 62.01 28.5065 61.4238C25.4318 61.0156 23.25 58.3581 23.25 55.3332Z" fill="white"/>
</svg>
