<svg width="49" height="48" viewBox="0 0 49 48" fill="none" xmlns="http://www.w3.org/2000/svg">
<rect x="0.333252" width="48" height="48" rx="12" fill="#06A73B"/>
<path d="M23.8333 19.0219C22.8229 18.3752 21.6216 18 20.3333 18C19.5744 18 18.845 18.1302 18.1666 18.37C17.9668 18.4406 17.8333 18.6295 17.8333 18.8414V28.3414C17.8333 28.5037 17.912 28.6559 18.0446 28.7496C18.1771 28.8434 18.3468 28.8669 18.4999 28.8128C19.0727 28.6104 19.6895 28.5 20.3333 28.5C21.6633 28.5 22.8821 28.9715 23.8333 29.7571V19.0219Z" fill="white"/>
<path d="M24.8333 29.7571C25.7844 28.9715 27.0032 28.5 28.3333 28.5C28.977 28.5 29.5938 28.6104 30.1666 28.8128C30.3197 28.8669 30.4894 28.8434 30.6219 28.7496C30.7545 28.6559 30.8333 28.5037 30.8333 28.3414V18.8414C30.8333 18.6295 30.6997 18.4406 30.4999 18.37C29.8215 18.1302 29.0921 18 28.3333 18C27.0449 18 25.8436 18.3752 24.8333 19.0219V29.7571Z" fill="white"/>
</svg>
