<svg width="48" height="48" viewBox="0 0 48 48" fill="none" xmlns="http://www.w3.org/2000/svg">
<rect width="48" height="48" rx="12" fill="#06A73B"/>
<path d="M19.9002 18.3335C20.0844 18.1277 20.0669 17.8116 19.8611 17.6274C19.6554 17.4433 19.3393 17.4608 19.1551 17.6665C18.3545 18.5611 17.7974 19.6797 17.5897 20.9173C17.544 21.1896 17.7278 21.4474 18.0001 21.4931C18.2725 21.5388 18.5303 21.3551 18.576 21.0827C18.7514 20.0372 19.222 19.0912 19.9002 18.3335Z" fill="white"/>
<path d="M28.8447 17.6665C28.6605 17.4608 28.3444 17.4433 28.1386 17.6274C27.9329 17.8116 27.9154 18.1277 28.0995 18.3335C28.7778 19.0912 29.2484 20.0372 29.4238 21.0827C29.4695 21.3551 29.7273 21.5388 29.9997 21.4931C30.272 21.4474 30.4557 21.1896 30.41 20.9173C30.2024 19.6797 29.6453 18.5611 28.8447 17.6665Z" fill="white"/>
<path fill-rule="evenodd" clip-rule="evenodd" d="M24 17.5C21.5148 17.5 19.5001 19.5146 19.5 21.9999L19.4999 22.5C19.4999 23.9154 18.9659 25.2049 18.0875 26.1799C17.9765 26.3031 17.9338 26.4734 17.9736 26.6344C18.0133 26.7954 18.1303 26.9262 18.2858 26.9836C19.3152 27.3637 20.3929 27.644 21.5069 27.8128C21.5023 27.8747 21.5 27.9371 21.5 28C21.5 29.3807 22.6193 30.5 24 30.5C25.3807 30.5 26.5 29.3807 26.5 28C26.5 27.9371 26.4977 27.8746 26.4931 27.8128C27.607 27.6439 28.6846 27.3636 29.7139 26.9836C29.8695 26.9262 29.9865 26.7954 30.0262 26.6344C30.0659 26.4734 30.0232 26.3031 29.9122 26.1799C29.0339 25.2049 28.4999 23.9154 28.4999 22.5V22.0328L28.5 22C28.5 19.5147 26.4853 17.5 24 17.5ZM22.5 28C22.5 27.9775 22.5005 27.9551 22.5015 27.9328C22.9951 27.9773 23.4949 28 23.9999 28C24.5049 28 25.0048 27.9773 25.4985 27.9328C25.4995 27.9551 25.5 27.9775 25.5 28C25.5 28.8284 24.8284 29.5 24 29.5C23.1716 29.5 22.5 28.8284 22.5 28Z" fill="white"/>
</svg>
