<svg width="84" height="85" viewBox="0 0 84 85" fill="none" xmlns="http://www.w3.org/2000/svg">
<rect x="0.5" y="1" width="83" height="83" rx="12.5" fill="#FDC04E"/>
<rect x="0.5" y="1" width="83" height="83" rx="12.5" stroke="#E9E9E9"/>
<path fill-rule="evenodd" clip-rule="evenodd" d="M38.875 25.3125C31.1085 25.3125 24.8125 31.6085 24.8125 39.375C24.8125 47.1415 31.1085 53.4375 38.875 53.4375C42.7587 53.4375 46.2722 51.8652 48.8187 49.3187C51.3652 46.7722 52.9375 43.2587 52.9375 39.375C52.9375 31.6085 46.6415 25.3125 38.875 25.3125ZM21.6875 39.375C21.6875 29.8826 29.3826 22.1875 38.875 22.1875C48.3674 22.1875 56.0625 29.8826 56.0625 39.375C56.0625 43.558 54.5666 47.3939 52.0832 50.3735L61.8549 60.1451C62.465 60.7553 62.465 61.7447 61.8549 62.3549C61.2447 62.965 60.2553 62.965 59.6451 62.3549L49.8735 52.5832C46.8939 55.0666 43.058 56.5625 38.875 56.5625C29.3826 56.5625 21.6875 48.8674 21.6875 39.375Z" fill="white"/>
</svg>
