<svg width="47" height="47" viewBox="0 0 47 47" fill="none" xmlns="http://www.w3.org/2000/svg">
<circle cx="23.7437" cy="23.2437" r="22.7492" fill="white" stroke="#E9E9E9" stroke-width="0.989094"/>
<path d="M28.2439 29.9941H19.2439M28.2439 29.9941C29.9008 29.9941 31.2439 31.3373 31.2439 32.9941H16.2439C16.2439 31.3373 17.5871 29.9941 19.2439 29.9941M28.2439 29.9941V26.6191C28.2439 25.9978 27.7402 25.4941 27.1189 25.4941H26.2473M19.2439 29.9941V26.6191C19.2439 25.9978 19.7476 25.4941 20.3689 25.4941H21.2405M26.2473 25.4941H21.2405M26.2473 25.4941C25.6999 24.548 25.3534 23.4711 25.2658 22.3219M21.2405 25.4941C21.7879 24.548 22.1344 23.4711 22.222 22.3219M16.9939 15.4805C16.0116 15.6233 15.0393 15.7969 14.0779 16.0001C14.5282 18.6676 16.7388 20.737 19.4736 20.9719M16.9939 15.4805V15.7441C16.9939 17.8519 17.96 19.7341 19.4736 20.9719M16.9939 15.4805V13.965C19.1993 13.6546 21.4529 13.4941 23.7439 13.4941C26.0349 13.4941 28.2885 13.6546 30.4939 13.965V15.4805M19.4736 20.9719C20.2611 21.616 21.1969 22.0857 22.222 22.3219M30.4939 15.4805V15.7441C30.4939 17.8519 29.5278 19.7341 28.0143 20.9719M30.4939 15.4805C31.4762 15.6233 32.4486 15.7969 33.41 16.0002C32.9596 18.6676 30.749 20.737 28.0143 20.9719M28.0143 20.9719C27.2267 21.616 26.2909 22.0857 25.2658 22.3219M25.2658 22.3219C24.7767 22.4346 24.2673 22.4941 23.7439 22.4941C23.2206 22.4941 22.7111 22.4346 22.222 22.3219" stroke="#232323" stroke-width="1.5" stroke-linecap="round" stroke-linejoin="round"/>
</svg>
