<svg width="20" height="20" viewBox="0 0 20 20" fill="none" xmlns="http://www.w3.org/2000/svg">
<rect width="20" height="20" rx="5" fill="#33CCFF"/>
<path d="M14.9642 6.83409C14.6339 6.97633 14.2868 7.07538 13.9312 7.12879C14.0975 7.10027 14.342 6.80081 14.4394 6.6796C14.5873 6.49677 14.7 6.28805 14.7718 6.06404C14.7718 6.04741 14.7885 6.02364 14.7718 6.01176C14.7635 6.00718 14.7541 6.00478 14.7445 6.00478C14.735 6.00478 14.7256 6.00718 14.7172 6.01176C14.3312 6.22101 13.9203 6.38071 13.4943 6.48709C13.4795 6.49163 13.4637 6.49204 13.4486 6.48827C13.4336 6.4845 13.4198 6.4767 13.4088 6.4657C13.3757 6.42618 13.34 6.38887 13.302 6.354C13.1282 6.1982 12.9311 6.07068 12.7178 5.97611C12.4299 5.85789 12.119 5.80669 11.8084 5.82638C11.507 5.84543 11.2128 5.92633 10.944 6.06404C10.6794 6.20924 10.4468 6.40649 10.2602 6.64395C10.0639 6.88836 9.92222 7.172 9.84462 7.47579C9.78064 7.76475 9.77338 8.06341 9.82325 8.35515C9.82325 8.40506 9.82325 8.41219 9.78051 8.40506C8.08745 8.15551 6.69833 7.55422 5.56329 6.26369C5.51343 6.20664 5.48731 6.20664 5.44694 6.26369C4.95303 7.01471 5.19286 8.20305 5.81025 8.79009C5.89336 8.86852 5.97884 8.94457 6.06907 9.01587C5.78601 8.99576 5.50985 8.91898 5.25698 8.79009C5.20948 8.75919 5.18336 8.77583 5.18099 8.83287C5.17426 8.91194 5.17426 8.99145 5.18099 9.07053C5.23054 9.44951 5.37976 9.80853 5.6134 10.1109C5.84704 10.4132 6.15671 10.648 6.51074 10.7912C6.59705 10.8282 6.68698 10.8561 6.77907 10.8744C6.51702 10.9261 6.24825 10.9341 5.98359 10.8982C5.9266 10.8863 5.90523 10.9172 5.9266 10.9719C6.27566 11.9225 7.03315 12.2125 7.58879 12.3741C7.66478 12.386 7.74076 12.386 7.82625 12.405C7.82625 12.405 7.82625 12.405 7.812 12.4193C7.64816 12.7187 6.98565 12.9207 6.68171 13.0253C6.12694 13.2248 5.53544 13.301 4.94828 13.2487C4.85567 13.2345 4.8343 13.2368 4.81056 13.2487C4.78681 13.2606 4.81056 13.2867 4.83668 13.3105C4.95541 13.3889 5.07413 13.4579 5.19761 13.5244C5.5652 13.7251 5.95382 13.8845 6.3564 13.9997C8.44126 14.5749 10.7873 14.1519 12.3522 12.5951C13.5822 11.3735 14.0143 9.68847 14.0143 8.00103C14.0143 7.93686 14.0927 7.89883 14.1378 7.86556C14.449 7.62288 14.7234 7.33627 14.9523 7.01471C14.9919 6.96678 15.0123 6.90575 15.0093 6.84359V6.84359C15.0093 6.80794 15.0093 6.81507 14.9642 6.83409Z" fill="white"/>
</svg>
