<svg width="48" height="48" viewBox="0 0 48 48" fill="none" xmlns="http://www.w3.org/2000/svg">
<rect width="48" height="48" rx="12" fill="#06A73B"/>
<path fill-rule="evenodd" clip-rule="evenodd" d="M21 19.5C21 18.3954 21.8954 17.5 23 17.5H25C26.1046 17.5 27 18.3954 27 19.5V19.6367C27.6216 19.6936 28.2383 19.768 28.8494 19.8594C29.8187 20.0045 30.5 20.8478 30.5 21.8038V23.8259C30.5 24.6334 30.0109 25.3942 29.2091 25.6607C27.5711 26.2053 25.8194 26.5 24 26.5C22.1806 26.5 20.4289 26.2053 18.7908 25.6607C17.9891 25.3941 17.5 24.6333 17.5 23.8259V21.8038C17.5 20.8478 18.1813 20.0045 19.1506 19.8594C19.7617 19.768 20.3784 19.6936 21 19.6367V19.5ZM26 19.5V19.5605C25.3384 19.5204 24.6716 19.5 24 19.5C23.3284 19.5 22.6616 19.5204 22 19.5605V19.5C22 18.9477 22.4477 18.5 23 18.5H25C25.5523 18.5 26 18.9477 26 19.5ZM24 25C24.2761 25 24.5 24.7761 24.5 24.5C24.5 24.2239 24.2761 24 24 24C23.7239 24 23.5 24.2239 23.5 24.5C23.5 24.7761 23.7239 25 24 25Z" fill="white"/>
<path d="M18 28.2666V26.4026C18.1487 26.4842 18.3073 26.5538 18.4754 26.6096C20.2139 27.1877 22.072 27.5 24 27.5C25.928 27.5 27.7861 27.1877 29.5246 26.6097C29.6927 26.5538 29.8513 26.4842 30 26.4026V28.2666C30 29.2346 29.3018 30.085 28.3179 30.2156C26.905 30.4032 25.4637 30.5 24 30.5C22.5363 30.5 21.095 30.4032 19.6821 30.2156C18.6982 30.085 18 29.2346 18 28.2666Z" fill="white"/>
</svg>
