<svg width="65" height="64" viewBox="0 0 65 64" fill="none" xmlns="http://www.w3.org/2000/svg">
<rect x="0.5" width="64" height="64" rx="16" fill="#E8F9F0"/>
<path fill-rule="evenodd" clip-rule="evenodd" d="M33.5023 18.5399C33.0979 18.157 32.4647 18.157 32.0604 18.5399C29.2411 21.2099 25.4369 22.846 21.2483 22.846C21.1816 22.846 21.1151 22.8456 21.0487 22.8447C20.591 22.8391 20.1826 23.1309 20.0396 23.5657C19.4629 25.3197 19.1514 27.1929 19.1514 29.1368C19.1514 37.4434 24.8327 44.4204 32.52 46.399C32.6914 46.4431 32.8712 46.4431 33.0427 46.399C40.73 44.4204 46.4113 37.4434 46.4113 29.1368C46.4113 27.1929 46.0997 25.3197 45.523 23.5657C45.3801 23.1309 44.9716 22.8391 44.514 22.8447C44.4475 22.8456 44.381 22.846 44.3144 22.846C40.1258 22.846 36.3216 21.2099 33.5023 18.5399ZM37.8283 29.746C38.1649 29.2748 38.0558 28.62 37.5846 28.2834C37.1134 27.9469 36.4586 28.056 36.122 28.5272L31.5991 34.8593L29.3289 32.589C28.9194 32.1796 28.2556 32.1796 27.8461 32.589C27.4367 32.9985 27.4367 33.6623 27.8461 34.0718L30.9915 37.2172C31.2094 37.4351 31.5122 37.5461 31.8193 37.5207C32.1265 37.4953 32.4069 37.336 32.586 37.0852L37.8283 29.746Z" fill="#06A73B"/>
</svg>
