<svg width="20" height="20" viewBox="0 0 20 20" fill="none" xmlns="http://www.w3.org/2000/svg">
<rect width="20" height="20" rx="5" fill="#FF0000"/>
<path d="M15.5628 7.24909C15.4322 6.75818 15.046 6.37091 14.5545 6.23818C13.6658 6 10.1004 6 10.1004 6C10.1004 6 6.53676 6 5.6463 6.23818C5.15664 6.36909 4.77036 6.75636 4.63797 7.24909C4.40039 8.14 4.40039 10 4.40039 10C4.40039 10 4.40039 11.86 4.63797 12.7509C4.76854 13.2418 5.15483 13.6291 5.6463 13.7618C6.53676 14 10.1004 14 10.1004 14C10.1004 14 13.6658 14 14.5545 13.7618C15.0441 13.6309 15.4304 13.2436 15.5628 12.7509C15.8004 11.86 15.8004 10 15.8004 10C15.8004 10 15.8004 8.14 15.5628 7.24909Z" fill="white"/>
<path d="M8.96148 11.7145L11.923 10L8.96148 8.28545V11.7145Z" fill="#FF0000"/>
</svg>
