<svg width="183" height="43" viewBox="0 0 183 43" fill="none" xmlns="http://www.w3.org/2000/svg">
<path d="M35.6902 18.7892H31.384V12.4882L35.6902 10.2697V18.7892Z" fill="white"/>
<path d="M35.6902 24.2108H31.384V30.5118L35.6902 32.7303V24.2108Z" fill="white"/>
<path d="M4.76438 7.94625L0.404011 2.52475L35.6438 10.2698L35.6438 12.5933L35.6438 14.9168L4.76438 7.94625Z" fill="white"/>
<path d="M4.7656 35.0537L0.405232 40.4753L35.645 32.7302L35.645 30.4067L35.645 28.0832L4.7656 35.0537Z" fill="white"/>
<path d="M5.05103 18.7892L0.404021 18.7892L0.404021 2.52473L5.05103 6.06049L5.05103 18.7892Z" fill="white"/>
<path d="M5.05103 24.2108L0.404021 24.2108L0.404021 40.4753L5.05103 36.9395L5.05103 24.2108Z" fill="white"/>
<path d="M62.1091 8.3C63.8371 8.3 65.4691 8.636 67.0051 9.308C68.5411 9.956 69.8731 10.856 71.0011 12.008C72.1531 13.136 73.0531 14.468 73.7011 16.004C74.3731 17.54 74.7091 19.172 74.7091 20.9C74.7091 22.628 74.3731 24.26 73.7011 25.796C73.0531 27.332 72.1531 28.676 71.0011 29.828C69.8731 30.956 68.5411 31.856 67.0051 32.528C65.4691 33.176 63.8371 33.5 62.1091 33.5H60.0211L57.6451 29.108H62.1091C63.1411 29.108 64.1131 28.904 65.0251 28.496C65.9611 28.088 66.7651 27.524 67.4371 26.804C68.1331 26.06 68.6731 25.184 69.0571 24.176C69.4651 23.168 69.6691 22.076 69.6691 20.9C69.6691 19.748 69.4651 18.668 69.0571 17.66C68.6731 16.652 68.1331 15.788 67.4371 15.068C66.7651 14.324 65.9611 13.748 65.0251 13.34C64.1131 12.908 63.1411 12.692 62.1091 12.692H56.3491V33.5H51.3091V8.3H62.1091ZM76.6877 33.5V15.5H81.4757V33.5H76.6877ZM76.6877 8.3H81.4757V12.512H76.6877V8.3ZM103.161 15.5V31.448C103.089 32.792 102.789 34.04 102.261 35.192C101.733 36.368 101.025 37.376 100.137 38.216C99.2726 39.08 98.2526 39.752 97.0766 40.232C95.9006 40.736 94.6526 40.988 93.3326 40.988C91.5566 40.988 89.9006 40.544 88.3646 39.656C86.8526 38.792 85.6526 37.604 84.7646 36.092L84.7286 36.02L84.7646 35.984L88.7246 34.256C88.9646 34.688 89.2646 35.06 89.6246 35.372C90.0086 35.708 90.4046 35.972 90.8126 36.164C91.2446 36.38 91.6766 36.536 92.1086 36.632C92.5646 36.752 92.9966 36.812 93.4046 36.812C94.0286 36.812 94.6406 36.68 95.2406 36.416C95.8406 36.152 96.3686 35.768 96.8246 35.264C97.3046 34.76 97.6766 34.16 97.9406 33.464C98.2286 32.768 98.3726 31.988 98.3726 31.124V24.536C98.3726 23.84 98.2286 23.192 97.9406 22.592C97.6766 21.968 97.3046 21.44 96.8246 21.008C96.3686 20.552 95.8286 20.192 95.2046 19.928C94.6046 19.664 93.9566 19.532 93.2606 19.532C92.5646 19.532 91.9046 19.664 91.2806 19.928C90.6806 20.192 90.1526 20.552 89.6966 21.008C89.2406 21.44 88.8806 21.968 88.6166 22.592C88.3526 23.192 88.2206 23.84 88.2206 24.536C88.2206 25.232 88.3526 25.88 88.6166 26.48C88.8806 27.08 89.2406 27.608 89.6966 28.064C90.1526 28.52 90.6806 28.88 91.2806 29.144C91.9046 29.408 92.5646 29.54 93.2606 29.54C94.0046 29.54 94.6526 29.408 95.2046 29.144H95.2406L95.2766 29.18L97.0766 32.384L97.0406 32.42C95.8646 33.38 94.4126 33.86 92.6846 33.86C91.3886 33.86 90.1646 33.62 89.0126 33.14C87.8606 32.636 86.8646 31.964 86.0246 31.124C85.1846 30.284 84.5126 29.3 84.0086 28.172C83.5286 27.02 83.2886 25.808 83.2886 24.536C83.2886 23.24 83.5286 22.028 84.0086 20.9C84.5126 19.772 85.1846 18.788 86.0246 17.948C86.8646 17.108 87.8606 16.448 89.0126 15.968C90.1646 15.464 91.3886 15.212 92.6846 15.212C95.1326 15.212 97.0286 16.136 98.3726 17.984V15.5H103.161ZM105.305 33.5V15.5H110.093V33.5H105.305ZM105.305 8.3H110.093V12.512H105.305V8.3ZM124.794 17.372V21.368H122.13L119.898 17.372H124.794ZM119.286 27.344C119.286 27.896 119.478 28.364 119.862 28.748C120.27 29.132 120.75 29.324 121.302 29.324H124.794V33.5H121.302C120.366 33.5 119.478 33.332 118.638 32.996C117.822 32.636 117.102 32.156 116.478 31.556C115.878 30.932 115.398 30.212 115.038 29.396C114.678 28.58 114.498 27.704 114.498 26.768V21.368H111.906V17.372H114.498V10.856H119.286V27.344ZM134.695 15.212C135.967 15.212 137.167 15.464 138.295 15.968C139.423 16.448 140.407 17.108 141.247 17.948C142.087 18.788 142.747 19.772 143.227 20.9C143.731 22.028 143.983 23.24 143.983 24.536C143.983 25.232 143.911 25.904 143.767 26.552L143.731 26.624H134.587L132.283 22.952H139.123C138.787 21.944 138.223 21.116 137.431 20.468C136.663 19.82 135.751 19.496 134.695 19.496C134.047 19.496 133.435 19.628 132.859 19.892C132.283 20.156 131.779 20.516 131.347 20.972C130.939 21.404 130.615 21.932 130.375 22.556C130.135 23.156 130.015 23.816 130.015 24.536C130.015 25.088 130.123 25.664 130.339 26.264C130.555 26.84 130.867 27.368 131.275 27.848C131.683 28.328 132.175 28.736 132.751 29.072C133.327 29.384 133.975 29.54 134.695 29.54C135.343 29.54 135.931 29.456 136.459 29.288C137.011 29.096 137.527 28.688 138.007 28.064L138.043 28.028L138.115 28.064L142.291 29.9L142.219 29.972C141.355 31.172 140.251 32.108 138.907 32.78C137.587 33.452 136.183 33.788 134.695 33.788C133.399 33.788 132.175 33.548 131.023 33.068C129.895 32.588 128.911 31.928 128.071 31.088C127.231 30.248 126.559 29.264 126.055 28.136C125.575 27.008 125.335 25.808 125.335 24.536C125.335 23.24 125.575 22.028 126.055 20.9C126.559 19.772 127.231 18.788 128.071 17.948C128.911 17.108 129.895 16.448 131.023 15.968C132.175 15.464 133.399 15.212 134.695 15.212ZM153.366 18.596H158.658V22.592H155.598H155.562L153.366 18.596ZM158.658 8.3V12.512H154.734C154.11 12.512 153.63 12.752 153.294 13.232C152.958 13.712 152.79 14.372 152.79 15.212V33.5H148.002V22.592H145.41V18.596H148.002V14.996C148.002 14.084 148.17 13.22 148.506 12.404C148.866 11.588 149.346 10.88 149.946 10.28C150.57 9.656 151.29 9.176 152.106 8.84C152.922 8.48 153.798 8.3 154.734 8.3H158.658ZM179.797 15.5V33.5H175.081V24.5C175.081 23.804 174.949 23.156 174.685 22.556C174.421 21.956 174.049 21.428 173.569 20.972C173.113 20.516 172.573 20.168 171.949 19.928C171.349 19.664 170.713 19.532 170.041 19.532C169.345 19.532 168.697 19.664 168.097 19.928C167.497 20.192 166.957 20.552 166.477 21.008C166.021 21.44 165.661 21.968 165.397 22.592C165.133 23.192 165.001 23.84 165.001 24.536C165.001 25.208 165.133 25.844 165.397 26.444C165.661 27.044 166.021 27.572 166.477 28.028C166.957 28.484 167.497 28.844 168.097 29.108C168.697 29.372 169.345 29.504 170.041 29.504C170.785 29.504 171.421 29.372 171.949 29.108H171.985V29.18L173.785 32.384L173.749 32.42C172.573 33.332 171.121 33.788 169.393 33.788C168.121 33.788 166.921 33.548 165.793 33.068C164.665 32.588 163.681 31.928 162.841 31.088C162.001 30.248 161.329 29.264 160.825 28.136C160.345 27.008 160.105 25.808 160.105 24.536C160.105 23.24 160.345 22.028 160.825 20.9C161.329 19.772 162.001 18.788 162.841 17.948C163.681 17.108 164.665 16.448 165.793 15.968C166.921 15.464 168.121 15.212 169.393 15.212C170.641 15.212 171.733 15.452 172.669 15.932C173.605 16.388 174.409 17.06 175.081 17.948V15.5H179.797Z" fill="white"/>
</svg>
