<svg width="399" height="58" viewBox="0 0 399 58" fill="none" xmlns="http://www.w3.org/2000/svg">
<path d="M21.1203 0.199997C23.2963 0.199997 25.3443 0.626664 27.2643 1.48C29.1843 2.29067 30.8696 3.42133 32.3203 4.872C33.7709 6.28 34.9016 7.944 35.7123 9.864C36.5656 11.784 36.9923 13.832 36.9923 16.008C36.9923 18.184 36.5656 20.232 35.7123 22.152C34.9016 24.072 33.7709 25.736 32.3203 27.144C30.8696 28.552 29.1843 29.6827 27.2643 30.536C25.3443 31.3467 23.2963 31.752 21.1203 31.752H16.1283L11.2643 22.792H21.1203C22.0589 22.792 22.9336 22.6213 23.7443 22.28C24.5976 21.896 25.3229 21.384 25.9203 20.744C26.5176 20.0613 26.9869 19.272 27.3283 18.376C27.7123 17.4373 27.9043 16.4133 27.9043 15.304C27.9043 14.3653 27.7123 13.4693 27.3283 12.616C26.9869 11.72 26.5176 10.9307 25.9203 10.248C25.3229 9.56533 24.5976 9.01067 23.7443 8.584C22.9336 8.15733 22.0589 7.944 21.1203 7.944H9.79225V45H0.89625V0.199997H21.1203ZM66.6258 14.28L65.8578 15.56L62.5938 21.384L62.5298 21.32C61.1218 20.5093 59.6071 20.104 57.9858 20.104C56.8764 20.104 55.8311 20.296 54.8498 20.68C53.8684 21.0213 52.9938 21.5333 52.2258 22.216C51.4578 22.856 50.7964 23.624 50.2418 24.52C49.7298 25.416 49.3884 26.376 49.2178 27.4V45H40.5138V13H49.2178V17.16C51.4791 14.0453 54.7858 12.488 59.1378 12.488C61.6978 12.488 64.1724 13.0853 66.5618 14.28H66.6258ZM68.5138 45V13H77.0258V45H68.5138ZM68.5138 0.199997H77.0258V7.688H68.5138V0.199997ZM88.7608 13.064L97.0168 36.232L91.3848 42.056L79.6088 13H88.7608V13.064ZM106.297 13H115.385L102.265 45H94.8408L97.4648 37.64L106.297 13ZM148.944 13V45H140.56V29C140.56 27.7627 140.326 26.6107 139.856 25.544C139.387 24.4773 138.726 23.5387 137.872 22.728C137.062 21.9173 136.102 21.2987 134.992 20.872C133.926 20.4027 132.795 20.168 131.6 20.168C130.363 20.168 129.211 20.4027 128.144 20.872C127.078 21.3413 126.118 21.9813 125.264 22.792C124.454 23.56 123.814 24.4987 123.344 25.608C122.875 26.6747 122.64 27.8267 122.64 29.064C122.64 30.2587 122.875 31.3893 123.344 32.456C123.814 33.5227 124.454 34.4613 125.264 35.272C126.118 36.0827 127.078 36.7227 128.144 37.192C129.211 37.6613 130.363 37.896 131.6 37.896C132.923 37.896 134.054 37.6613 134.992 37.192H135.056V37.32L138.256 43.016L138.192 43.08C136.102 44.7013 133.52 45.512 130.448 45.512C128.187 45.512 126.054 45.0853 124.048 44.232C122.043 43.3787 120.294 42.2053 118.8 40.712C117.307 39.2187 116.112 37.4693 115.216 35.464C114.363 33.4587 113.936 31.3253 113.936 29.064C113.936 26.76 114.363 24.6053 115.216 22.6C116.112 20.5947 117.307 18.8453 118.8 17.352C120.294 15.8587 122.043 14.6853 124.048 13.832C126.054 12.936 128.187 12.488 130.448 12.488C132.667 12.488 134.608 12.9147 136.272 13.768C137.936 14.5787 139.366 15.7733 140.56 17.352V13H148.944ZM175.686 32.776L182.598 37.32L182.534 37.384C181.041 39.944 179.014 41.9493 176.454 43.4C173.937 44.8507 171.206 45.576 168.262 45.576C165.958 45.576 163.804 45.1493 161.798 44.296C159.793 43.4 158.044 42.2053 156.55 40.712C155.057 39.2187 153.862 37.4693 152.966 35.464C152.113 33.4587 151.686 31.3253 151.686 29.064C151.686 26.8027 152.113 24.6693 152.966 22.664C153.862 20.6587 155.057 18.9093 156.55 17.416C158.044 15.9227 159.793 14.7493 161.798 13.896C163.804 13 165.958 12.552 168.262 12.552C171.206 12.552 173.937 13.2773 176.454 14.728C179.014 16.1787 181.041 18.184 182.534 20.744L182.598 20.808L175.622 25.352L175.558 25.288C174.876 23.7093 173.873 22.4293 172.55 21.448C171.27 20.4667 169.841 19.976 168.262 19.976C167.11 19.976 166.022 20.232 164.998 20.744C164.017 21.2133 163.164 21.8747 162.438 22.728C161.713 23.5387 161.137 24.4987 160.71 25.608C160.284 26.6747 160.07 27.8267 160.07 29.064C160.07 30.3013 160.284 31.4533 160.71 32.52C161.137 33.5867 161.713 34.5253 162.438 35.336C163.164 36.104 164.017 36.7227 164.998 37.192C166.022 37.6187 167.11 37.832 168.262 37.832C169.841 37.832 171.27 37.4053 172.55 36.552C173.873 35.656 174.876 34.4187 175.558 32.84L175.622 32.712L175.686 32.776ZM193.934 40.648L182.734 13H191.886V13.064L200.142 36.296L193.934 40.648ZM218.446 13L218.382 13.128C217.656 15.0907 216.952 17.0107 216.27 18.888C215.587 20.7227 214.947 22.4507 214.35 24.072C212.216 30.0453 210.296 35.1867 208.59 39.496C206.926 43.7627 205.134 47.24 203.214 49.928C201.294 52.7013 199.118 54.7067 196.686 55.944C194.296 57.1813 191.288 57.8 187.662 57.8H187.534V49.096H187.662C188.771 49.096 189.752 49.0533 190.606 48.968C191.502 48.8827 192.312 48.6907 193.038 48.392C193.763 48.136 194.424 47.752 195.022 47.24C195.662 46.7707 196.259 46.1307 196.814 45.32C197.368 44.552 197.923 43.6133 198.478 42.504C199.032 41.3947 199.608 40.072 200.206 38.536C200.803 37 201.464 35.2293 202.19 33.224C202.915 31.176 203.726 28.872 204.622 26.312C205.304 24.392 206.03 22.344 206.798 20.168C207.566 17.992 208.398 15.624 209.294 13.064V13H218.446Z" fill="#FDC04E"/>
<path d="M254.37 0.199997C256.546 0.199997 258.594 0.626664 260.514 1.48C262.434 2.29067 264.12 3.42133 265.57 4.872C267.021 6.28 268.152 7.944 268.962 9.864C269.816 11.784 270.242 13.832 270.242 16.008C270.242 18.184 269.816 20.232 268.962 22.152C268.152 24.072 267.021 25.736 265.57 27.144C264.12 28.552 262.434 29.6827 260.514 30.536C258.594 31.3467 256.546 31.752 254.37 31.752H249.378L244.514 22.792H254.37C255.309 22.792 256.184 22.6213 256.994 22.28C257.848 21.896 258.573 21.384 259.17 20.744C259.768 20.0613 260.237 19.272 260.578 18.376C260.962 17.4373 261.154 16.4133 261.154 15.304C261.154 14.3653 260.962 13.4693 260.578 12.616C260.237 11.72 259.768 10.9307 259.17 10.248C258.573 9.56533 257.848 9.01067 256.994 8.584C256.184 8.15733 255.309 7.944 254.37 7.944H243.042V45H234.146V0.199997H254.37ZM288.075 12.488C290.379 12.488 292.533 12.936 294.539 13.832C296.544 14.6853 298.293 15.8587 299.787 17.352C301.28 18.8453 302.453 20.5947 303.307 22.6C304.203 24.6053 304.651 26.7387 304.651 29C304.651 31.2613 304.203 33.3947 303.307 35.4C302.453 37.4053 301.28 39.1547 299.787 40.648C298.293 42.1413 296.544 43.336 294.539 44.232C292.533 45.0853 290.379 45.512 288.075 45.512C285.771 45.512 283.616 45.0853 281.611 44.232C279.605 43.336 277.856 42.1413 276.363 40.648C274.869 39.1547 273.675 37.4053 272.779 35.4C271.925 33.3947 271.499 31.2613 271.499 29C271.499 26.7387 271.925 24.6053 272.779 22.6C273.675 20.5947 274.869 18.8453 276.363 17.352C277.856 15.8587 279.605 14.6853 281.611 13.832C283.616 12.936 285.771 12.488 288.075 12.488ZM288.075 37.896C289.141 37.896 290.123 37.6613 291.019 37.192C291.957 36.7227 292.768 36.0827 293.451 35.272C294.176 34.4187 294.731 33.4587 295.115 32.392C295.541 31.2827 295.755 30.088 295.755 28.808C295.755 27.6133 295.541 26.4827 295.115 25.416C294.731 24.3067 294.176 23.368 293.451 22.6C292.768 21.7893 291.957 21.1493 291.019 20.68C290.123 20.2107 289.141 19.976 288.075 19.976C287.008 19.976 286.005 20.2107 285.067 20.68C284.128 21.1493 283.296 21.7893 282.571 22.6C281.888 23.368 281.333 24.3067 280.907 25.416C280.523 26.4827 280.331 27.6133 280.331 28.808C280.331 30.088 280.523 31.2827 280.907 32.392C281.333 33.4587 281.888 34.4187 282.571 35.272C283.296 36.0827 284.128 36.7227 285.067 37.192C286.005 37.6613 287.008 37.896 288.075 37.896ZM307.89 0.199997H316.338V45H307.826L307.89 0.199997ZM320.201 45V13H328.713V45H320.201ZM320.201 0.199997H328.713V7.688H320.201V0.199997ZM355.936 32.776L362.848 37.32L362.784 37.384C361.291 39.944 359.264 41.9493 356.704 43.4C354.187 44.8507 351.456 45.576 348.512 45.576C346.208 45.576 344.054 45.1493 342.048 44.296C340.043 43.4 338.294 42.2053 336.8 40.712C335.307 39.2187 334.112 37.4693 333.216 35.464C332.363 33.4587 331.936 31.3253 331.936 29.064C331.936 26.8027 332.363 24.6693 333.216 22.664C334.112 20.6587 335.307 18.9093 336.8 17.416C338.294 15.9227 340.043 14.7493 342.048 13.896C344.054 13 346.208 12.552 348.512 12.552C351.456 12.552 354.187 13.2773 356.704 14.728C359.264 16.1787 361.291 18.184 362.784 20.744L362.848 20.808L355.872 25.352L355.808 25.288C355.126 23.7093 354.123 22.4293 352.8 21.448C351.52 20.4667 350.091 19.976 348.512 19.976C347.36 19.976 346.272 20.232 345.248 20.744C344.267 21.2133 343.414 21.8747 342.688 22.728C341.963 23.5387 341.387 24.4987 340.96 25.608C340.534 26.6747 340.32 27.8267 340.32 29.064C340.32 30.3013 340.534 31.4533 340.96 32.52C341.387 33.5867 341.963 34.5253 342.688 35.336C343.414 36.104 344.267 36.7227 345.248 37.192C346.272 37.6187 347.36 37.832 348.512 37.832C350.091 37.832 351.52 37.4053 352.8 36.552C354.123 35.656 355.126 34.4187 355.808 32.84L355.872 32.712L355.936 32.776ZM374.184 40.648L362.984 13H372.136V13.064L380.392 36.296L374.184 40.648ZM398.696 13L398.632 13.128C397.906 15.0907 397.202 17.0107 396.52 18.888C395.837 20.7227 395.197 22.4507 394.6 24.072C392.466 30.0453 390.546 35.1867 388.84 39.496C387.176 43.7627 385.384 47.24 383.464 49.928C381.544 52.7013 379.368 54.7067 376.936 55.944C374.546 57.1813 371.538 57.8 367.912 57.8H367.784V49.096H367.912C369.021 49.096 370.002 49.0533 370.856 48.968C371.752 48.8827 372.562 48.6907 373.288 48.392C374.013 48.136 374.674 47.752 375.272 47.24C375.912 46.7707 376.509 46.1307 377.064 45.32C377.618 44.552 378.173 43.6133 378.728 42.504C379.282 41.3947 379.858 40.072 380.456 38.536C381.053 37 381.714 35.2293 382.44 33.224C383.165 31.176 383.976 28.872 384.872 26.312C385.554 24.392 386.28 22.344 387.048 20.168C387.816 17.992 388.648 15.624 389.544 13.064V13H398.696Z" fill="#06A73B"/>
</svg>
